<svg xmlns="http://www.w3.org/2000/svg" width="24" height="19.04" viewBox="0 0 24 19.04">
  <g id="Icon_ionic-md-mail-unread" data-name="Icon ionic-md-mail-unread" transform="translate(-2.25 -4.5)">
    <path id="Path_14" data-name="Path 14" d="M32.5,7.81a3.31,3.31,0,1,1-3.31-3.31A3.31,3.31,0,0,1,32.5,7.81Z" transform="translate(-6.246 0)" fill="#fff"/>
    <path id="Path_15" data-name="Path 15" d="M20.4,12.008l-6.564,4.376-9.1-6.067V8.108l9.1,6.067,5.229-3.486A4.651,4.651,0,0,1,19,5.625H4.459A2.214,2.214,0,0,0,2.25,7.834V21.628a2.214,2.214,0,0,0,2.209,2.209h18.76a2.214,2.214,0,0,0,2.209-2.209V12.044a4.656,4.656,0,0,1-5.028-.036Z" transform="translate(0 -0.297)" fill="#fff"/>
  </g>
</svg>
