<svg xmlns="http://www.w3.org/2000/svg" width="24" height="23.935" viewBox="0 0 24 23.935">
  <g id="Group_5" data-name="Group 5" transform="translate(72.085 -598.412)">
    <path id="Path_11" data-name="Path 11" d="M3677.886,3390a2.87,2.87,0,1,1-2.886,2.854A2.892,2.892,0,0,1,3677.886,3390Z" transform="translate(-3747.085 -2791.588)" fill="#fff" fill-rule="evenodd"/>
    <path id="Path_12" data-name="Path 12" d="M3691.184,3650.989h-3.373a.8.8,0,0,1-.811-.778v-14.4a.8.8,0,0,1,.811-.811h3.373a.8.8,0,0,1,.778.811v14.4A.789.789,0,0,1,3691.184,3650.989Z" transform="translate(-3758.695 -3028.642)" fill="#fff" fill-rule="evenodd"/>
    <path id="Path_13" data-name="Path 13" d="M3952.5,3628.448a5.447,5.447,0,0,0-5.481-5.449h-.843a4.825,4.825,0,0,0-3.989,2.076,1.813,1.813,0,0,0-.26.422h-.065v-1.784a.325.325,0,0,0-.324-.324h-4.216a.349.349,0,0,0-.324.324v15.341a.349.349,0,0,0,.324.324h4.314a.325.325,0,0,0,.324-.324V3630.2a2.8,2.8,0,0,1,4.768-2.011,2.879,2.879,0,0,1,.811,1.978v8.886a.325.325,0,0,0,.324.324h4.314a.325.325,0,0,0,.324-.324v-10.605Z" transform="translate(-4000.588 -3017.031)" fill="#fff" fill-rule="evenodd"/>
  </g>
</svg>
