<svg xmlns="http://www.w3.org/2000/svg" width="27.691" height="27.616" viewBox="0 0 27.691 27.616">
  <g id="Group_5" data-name="Group 5" transform="translate(72.085 -598.412)">
    <path id="Path_11" data-name="Path 11" d="M3678.33,3390a3.338,3.338,0,0,1,3.33,3.33,3.33,3.33,0,1,1-3.33-3.33Z" transform="translate(-3747.085 -2791.588)" fill="#fff" fill-rule="evenodd"/>
    <path id="Path_12" data-name="Path 12" d="M3691.827,3653.448h-3.892a.919.919,0,0,1-.936-.9v-16.615a.926.926,0,0,1,.936-.935h3.892a.919.919,0,0,1,.9.935v16.615A.91.91,0,0,1,3691.827,3653.448Z" transform="translate(-3758.635 -3027.42)" fill="#fff" fill-rule="evenodd"/>
    <path id="Path_13" data-name="Path 13" d="M3954.887,3629.287a6.284,6.284,0,0,0-6.324-6.287h-.973a5.568,5.568,0,0,0-4.6,2.395,2.1,2.1,0,0,0-.3.487h-.075v-2.058a.375.375,0,0,0-.374-.374h-4.865a.4.4,0,0,0-.375.374v17.7a.4.4,0,0,0,.375.374h4.977a.374.374,0,0,0,.374-.374v-10.216a3.228,3.228,0,0,1,5.5-2.32,3.321,3.321,0,0,1,.935,2.282v10.253a.375.375,0,0,0,.374.374h4.977a.375.375,0,0,0,.375-.374v-12.237Z" transform="translate(-3999.281 -3015.869)" fill="#fff" fill-rule="evenodd"/>
  </g>
</svg>
