<svg xmlns="http://www.w3.org/2000/svg" width="24" height="24" viewBox="0 0 24 24">
  <path id="Icon_awesome-medium" data-name="Icon awesome-medium" d="M0,2.25v24H24v-24ZM19.939,7.934,18.654,9.166a.378.378,0,0,0-.145.359v9.07a.369.369,0,0,0,.145.359l1.259,1.232v.273H13.591V20.2l1.3-1.264c.129-.129.129-.166.129-.359V11.239L11.4,20.432h-.488L6.7,11.239V17.4a.847.847,0,0,0,.236.707l1.693,2.052v.273H3.814v-.273l1.693-2.052a.82.82,0,0,0,.22-.707V10.275a.612.612,0,0,0-.2-.525L4.018,7.934V7.661H8.695l3.611,7.929,3.177-7.923h4.457Z" transform="translate(0 -2.25)" fill="#fff"/>
</svg>
