<svg xmlns="http://www.w3.org/2000/svg" width="30.199" height="41.524" viewBox="0 0 30.199 41.524">
  <path id="ic_developer_mode_24px" d="M9.662,8.55H28.537v3.775h3.775V4.775a3.77,3.77,0,0,0-3.775-3.756L9.662,1A3.786,3.786,0,0,0,5.887,4.775v7.55H9.662ZM25.536,30.425,34.2,21.762,25.536,13.1l-2.661,2.68,5.983,5.983-5.983,5.983Zm-10.211-2.68L9.341,21.762l5.983-5.983L12.663,13.1,4,21.762l8.663,8.663Zm13.212,7.229H9.662V31.2H5.887v7.55a3.786,3.786,0,0,0,3.775,3.775H28.537a3.786,3.786,0,0,0,3.775-3.775V31.2H28.537Z" transform="translate(-4 -1)" fill="#fff"/>
</svg>
